<svg width="4200" height="600" viewBox="0 0 4200 600" fill="none" xmlns="http://www.w3.org/2000/svg">
<path fill-rule="evenodd" clip-rule="evenodd" d="M453.966 318C445.047 395.124 379.516 455 300 455C214.396 455 145 385.604 145 300C145 214.396 214.396 145 300 145C379.859 145 445.612 205.394 454.078 283H370V318H453.966ZM500 300C500 410.457 410.457 500 300 500C189.543 500 100 410.457 100 300C100 189.543 189.543 100 300 100C410.457 100 500 189.543 500 300Z" fill="white"/>
<path d="M50 292C72.0914 292 90 274.091 90 252C90 229.909 72.0914 212 50 212C27.9086 212 10 229.909 10 252C10 274.091 27.9086 292 50 292Z" fill="white"/>
<path d="M50 396C72.0914 396 90 378.091 90 356C90 333.909 72.0914 316 50 316C27.9086 316 10 333.909 10 356C10 378.091 27.9086 396 50 396Z" fill="white"/>
<path d="M85 199C107.091 199 125 181.091 125 159C125 136.909 107.091 119 85 119C62.9086 119 45 136.909 45 159C45 181.091 62.9086 199 85 199Z" fill="white"/>
<path d="M85 489C107.091 489 125 471.091 125 449C125 426.909 107.091 409 85 409C62.9086 409 45 426.909 45 449C45 471.091 62.9086 489 85 489Z" fill="white"/>
<path d="M158 119C180.091 119 198 101.091 198 79C198 56.9086 180.091 39 158 39C135.909 39 118 56.9086 118 79C118 101.091 135.909 119 158 119Z" fill="white"/>
<path d="M158 561C180.091 561 198 543.091 198 521C198 498.909 180.091 481 158 481C135.909 481 118 498.909 118 521C118 543.091 135.909 561 158 561Z" fill="white"/>
<path fill-rule="evenodd" clip-rule="evenodd" d="M1053.97 318C1045.05 395.124 979.516 455 900 455C814.396 455 745 385.604 745 300C745 214.396 814.396 145 900 145C979.859 145 1045.61 205.394 1054.08 283H970V318H1053.97ZM1100 300C1100 410.457 1010.46 500 900 500C789.543 500 700 410.457 700 300C700 189.543 789.543 100 900 100C1010.46 100 1100 189.543 1100 300Z" fill="white"/>
<path d="M650 292C672.091 292 690 274.091 690 252C690 229.909 672.091 212 650 212C627.909 212 610 229.909 610 252C610 274.091 627.909 292 650 292Z" fill="white"/>
<path d="M650 396C672.091 396 690 378.091 690 356C690 333.909 672.091 316 650 316C627.909 316 610 333.909 610 356C610 378.091 627.909 396 650 396Z" fill="white"/>
<path d="M685 199C707.091 199 725 181.091 725 159C725 136.909 707.091 119 685 119C662.909 119 645 136.909 645 159C645 181.091 662.909 199 685 199Z" fill="white"/>
<path d="M685 489C707.091 489 725 471.091 725 449C725 426.909 707.091 409 685 409C662.909 409 645 426.909 645 449C645 471.091 662.909 489 685 489Z" fill="white"/>
<path d="M758 119C780.091 119 798 101.091 798 79C798 56.9086 780.091 39 758 39C735.909 39 718 56.9086 718 79C718 101.091 735.909 119 758 119Z" fill="white"/>
<path fill-rule="evenodd" clip-rule="evenodd" d="M1653.97 318C1645.05 395.124 1579.52 455 1500 455C1414.4 455 1345 385.604 1345 300C1345 214.396 1414.4 145 1500 145C1579.86 145 1645.61 205.394 1654.08 283H1570V318H1653.97ZM1700 300C1700 410.457 1610.46 500 1500 500C1389.54 500 1300 410.457 1300 300C1300 189.543 1389.54 100 1500 100C1610.46 100 1700 189.543 1700 300Z" fill="white"/>
<path d="M1250 292C1272.09 292 1290 274.091 1290 252C1290 229.909 1272.09 212 1250 212C1227.91 212 1210 229.909 1210 252C1210 274.091 1227.91 292 1250 292Z" fill="white"/>
<path d="M1250 396C1272.09 396 1290 378.091 1290 356C1290 333.909 1272.09 316 1250 316C1227.91 316 1210 333.909 1210 356C1210 378.091 1227.91 396 1250 396Z" fill="white"/>
<path d="M1285 199C1307.09 199 1325 181.091 1325 159C1325 136.909 1307.09 119 1285 119C1262.91 119 1245 136.909 1245 159C1245 181.091 1262.91 199 1285 199Z" fill="white"/>
<path d="M1285 489C1307.09 489 1325 471.091 1325 449C1325 426.909 1307.09 409 1285 409C1262.91 409 1245 426.909 1245 449C1245 471.091 1262.91 489 1285 489Z" fill="white"/>
<path fill-rule="evenodd" clip-rule="evenodd" d="M2253.97 318C2245.05 395.124 2179.52 455 2100 455C2014.4 455 1945 385.604 1945 300C1945 214.396 2014.4 145 2100 145C2179.86 145 2245.61 205.394 2254.08 283H2170V318H2253.97ZM2300 300C2300 410.457 2210.46 500 2100 500C1989.54 500 1900 410.457 1900 300C1900 189.543 1989.54 100 2100 100C2210.46 100 2300 189.543 2300 300Z" fill="white"/>
<path d="M1850 292C1872.09 292 1890 274.091 1890 252C1890 229.909 1872.09 212 1850 212C1827.91 212 1810 229.909 1810 252C1810 274.091 1827.91 292 1850 292Z" fill="white"/>
<path d="M1850 396C1872.09 396 1890 378.091 1890 356C1890 333.909 1872.09 316 1850 316C1827.91 316 1810 333.909 1810 356C1810 378.091 1827.91 396 1850 396Z" fill="white"/>
<path d="M1885 199C1907.09 199 1925 181.091 1925 159C1925 136.909 1907.09 119 1885 119C1862.91 119 1845 136.909 1845 159C1845 181.091 1862.91 199 1885 199Z" fill="white"/>
<path fill-rule="evenodd" clip-rule="evenodd" d="M2853.97 318C2845.05 395.124 2779.52 455 2700 455C2614.4 455 2545 385.604 2545 300C2545 214.396 2614.4 145 2700 145C2779.86 145 2845.61 205.394 2854.08 283H2770V318H2853.97ZM2900 300C2900 410.457 2810.46 500 2700 500C2589.54 500 2500 410.457 2500 300C2500 189.543 2589.54 100 2700 100C2810.46 100 2900 189.543 2900 300Z" fill="white"/>
<path d="M2450 292C2472.09 292 2490 274.091 2490 252C2490 229.909 2472.09 212 2450 212C2427.91 212 2410 229.909 2410 252C2410 274.091 2427.91 292 2450 292Z" fill="white"/>
<path d="M2450 396C2472.09 396 2490 378.091 2490 356C2490 333.909 2472.09 316 2450 316C2427.91 316 2410 333.909 2410 356C2410 378.091 2427.91 396 2450 396Z" fill="white"/>
<path fill-rule="evenodd" clip-rule="evenodd" d="M3453.97 318C3445.05 395.124 3379.52 455 3300 455C3214.4 455 3145 385.604 3145 300C3145 214.396 3214.4 145 3300 145C3379.86 145 3445.61 205.394 3454.08 283H3370V318H3453.97ZM3500 300C3500 410.457 3410.46 500 3300 500C3189.54 500 3100 410.457 3100 300C3100 189.543 3189.54 100 3300 100C3410.46 100 3500 189.543 3500 300Z" fill="white"/>
<path d="M3050 292C3072.09 292 3090 274.091 3090 252C3090 229.909 3072.09 212 3050 212C3027.91 212 3010 229.909 3010 252C3010 274.091 3027.91 292 3050 292Z" fill="white"/>
<path fill-rule="evenodd" clip-rule="evenodd" d="M4053.97 318C4045.05 395.124 3979.52 455 3900 455C3814.4 455 3745 385.604 3745 300C3745 214.396 3814.4 145 3900 145C3979.86 145 4045.61 205.394 4054.08 283H3970V318H4053.97ZM4100 300C4100 410.457 4010.46 500 3900 500C3789.54 500 3700 410.457 3700 300C3700 189.543 3789.54 100 3900 100C4010.46 100 4100 189.543 4100 300Z" fill="white"/>
</svg>
